# xmcd
#
# Track frame offsets: 
#        150
#        15915
#        27357
#        42737
#        56042
#        68087
#        81872
#        95265
#        106475
#        119792
#        133052
#        147447
#        161962
#        174727
#        190702
#        206672
#        224592
#        240350
#        252705
#        267220
#        280105
#        293992
#        308075
#
# Disc length: 4307 seconds
#
# Revision: 0
# Processed by: cddbd v1.5.2PL0 Copyright (c) Steve Scherf et al.
# Submitted via: ExactAudioCopy v1.0b2
#
DISCID=6710d117
DTITLE=Stefanie Hertel - Mach ein Fest aus Deinem Leben
DYEAR=2000
DGENRE=Volksmusik
TTITLE0=Stefanie Hertel mit Eberhard Hertel - Singen macht die Herzen 
TTITLE0=frei
TTITLE1=Mit dem Sonnenschein im Herzen
TTITLE2=Stefanie Hertel mit Stefan Mross und Eberhard Hertel - Mach ei
TTITLE2=n Fest aus Deinem Leben
TTITLE3=Ich bin immer da, wo die Musi spielt
TTITLE4=Alles was Spass macht
TTITLE5=Noch dreimal wird der Kirschbaum blüh'n
TTITLE6=Stefanie Hertel and Stefan Mross - Komm blas mir mal die Wolken 
TTITLE6=fort
TTITLE7=Stefanie Hertel mit dem Schlawiner Kinderchor - Träume schlage
TTITLE7=n Purzelbäume
TTITLE8=Camping
TTITLE9=Stefanie Hertel mit Eberhard Hertel - Wir lachen uns einfach d
TTITLE9=ie Sonne herbei
TTITLE10=Stefanie Hertel and Stefan Mross - Das hat der Himmel gut gemac
TTITLE10=ht
TTITLE11=Wo dere Sommer Urlaub macht
TTITLE12=Stefanie Hertel mit Stefan Mross - Mit einem Koffer voller So
TTITLE12=nnenschein
TTITLE13=Lass doch mal die Polka raus
TTITLE14=Ich habe die Sonne mitgebracht
TTITLE15=Espresso Italiano
TTITLE16=Wenn nicht deine frechen blauen Augen wär'n
TTITLE17=Stefanie Hertel and Stefan Mross - Mein Märchenprinz sieht aus 
TTITLE17=wie Du
TTITLE18=Immer wieder Sehnsucht
TTITLE19=Auf einer Insel am Ende der Welt
TTITLE20=Stefanie Hertel mit dem Schlawiner Kinderchor - Wenn Bua kein
TTITLE20=Rad'l hat
TTITLE21=Stefanie Hertel mit dem Schlawiner Kinderchor - Oma, du verst
TTITLE21=ehst mich nicht (Oberaffengeil)
TTITLE22=Stefanie Hertel mit dem Schlawiner Kinderchor - Wir sind die 
TTITLE22=Fans
EXTD=
EXTT0=
EXTT1=
EXTT2=
EXTT3=
EXTT4=
EXTT5=
EXTT6=
EXTT7=
EXTT8=
EXTT9=
EXTT10=
EXTT11=
EXTT12=
EXTT13=
EXTT14=
EXTT15=
EXTT16=
EXTT17=
EXTT18=
EXTT19=
EXTT20=
EXTT21=
EXTT22=
PLAYORDER=
